<?xml version="1.0" encoding="utf-8"?>
<!-- Generator: Adobe Illustrator 17.0.0, SVG Export Plug-In . SVG Version: 6.00 Build 0)  -->
<!DOCTYPE svg PUBLIC "-//W3C//DTD SVG 1.1//EN" "http://www.w3.org/Graphics/SVG/1.1/DTD/svg11.dtd" [
	<!ENTITY ns_extend "http://ns.adobe.com/Extensibility/1.0/">
	<!ENTITY ns_ai "http://ns.adobe.com/AdobeIllustrator/10.0/">
	<!ENTITY ns_graphs "http://ns.adobe.com/Graphs/1.0/">
	<!ENTITY ns_vars "http://ns.adobe.com/Variables/1.0/">
	<!ENTITY ns_imrep "http://ns.adobe.com/ImageReplacement/1.0/">
	<!ENTITY ns_sfw "http://ns.adobe.com/SaveForWeb/1.0/">
	<!ENTITY ns_custom "http://ns.adobe.com/GenericCustomNamespace/1.0/">
	<!ENTITY ns_adobe_xpath "http://ns.adobe.com/XPath/1.0/">
]>
<svg version="1.1" id="Layer_1" xmlns:x="&ns_extend;" xmlns:i="&ns_ai;" xmlns:graph="&ns_graphs;"
	 xmlns="http://www.w3.org/2000/svg" xmlns:xlink="http://www.w3.org/1999/xlink" x="0px" y="0px" width="128px" height="128px"
	 viewBox="0 0 128 128" enable-background="new 0 0 128 128" xml:space="preserve">
<metadata>
</metadata>
<g id="XMLID_43_">
	<g>
		<path fill="#7D560F" d="M89.893,54.014v21.965c0,4.034-3.25,7.322-7.255,7.322s-7.255-3.287-7.255-7.322V54.014H53.617
			c-4.005,0-7.255-3.287-7.255-7.322c0-4.042,3.25-7.322,7.255-7.322h21.765V17.405c0-4.042,3.25-7.322,7.255-7.322
			s7.255,3.28,7.255,7.322V39.37h21.765c4.005,0,7.255,3.28,7.255,7.322c0,4.034-3.25,7.322-7.255,7.322
			C111.657,54.014,89.893,54.014,89.893,54.014z"/>
		<path fill="#A19FA4" d="M60.872,112.588V91.406c0-4.459,3.613-8.105,8.031-8.105h1.183c2.518,4.371,7.19,7.322,12.551,7.322
			c8.002,0,14.51-6.568,14.51-14.644v9.884H97.14c-0.007,0.124-0.022,0.249-0.051,0.381c-0.015,0.059-0.029,0.117-0.044,0.176
			c-0.029,0.095-0.058,0.183-0.087,0.278c-0.022,0.059-0.044,0.117-0.073,0.183c-0.051,0.117-0.109,0.242-0.174,0.366
			c-0.015,0.029-0.029,0.066-0.051,0.095c-0.087,0.161-0.189,0.315-0.297,0.476c-0.036,0.059-0.073,0.11-0.116,0.161
			c-0.087,0.124-0.181,0.242-0.283,0.366c-0.044,0.059-0.087,0.11-0.131,0.161c-0.152,0.168-0.305,0.344-0.479,0.52l-28.803,29.068
			c-0.174,0.176-0.341,0.329-0.508,0.476c-0.058,0.051-0.109,0.095-0.167,0.139c-0.116,0.103-0.232,0.19-0.348,0.278
			c-0.051,0.037-0.109,0.088-0.167,0.124c-0.145,0.103-0.283,0.19-0.421,0.271c-0.087,0.051-0.174,0.088-0.261,0.132
			c-0.051,0.029-0.109,0.059-0.167,0.088c-0.094,0.044-0.196,0.081-0.29,0.117c-0.007,0.007-0.022,0.007-0.036,0.015
			c-0.225,0.073-0.435,0.124-0.646,0.146h-0.007v0.029H24.596c-8.017,0-14.51-6.56-14.51-14.644v-80.54
			c0-8.091,6.493-14.644,14.51-14.644h45.497c-1.241,2.153-1.966,4.649-1.966,7.322H24.596c-3.998,0-7.255,3.28-7.255,7.322v80.54
			c0,4.034,3.258,7.322,7.255,7.322L60.872,112.588L60.872,112.588z"/>
	</g>
</g>
</svg>
